<?xml version="1.0" encoding="UTF-8"?>
<svg width="1200pt" height="1200pt" version="1.1" viewBox="0 0 1200 1200" xmlns="http://www.w3.org/2000/svg">
 <path d="m1036.8 463.78c0.79688 58.219-22.5 115.08-65.484 158.11l-318.19 318.19c-14.062 14.062-33.094 21.984-53.016 21.984-19.922 0-38.953-7.9219-53.016-21.984l-318.24-318.24c-87.656-87.703-87.656-230.44 0-318.19 42.234-42.234 98.062-65.438 157.18-65.438 62.906 0 118.78 23.203 161.06 65.438l53.016 53.062 53.016-53.016c84.656-84.75 233.48-84.75 318.19 0 42.984 42.984 66.281 99.844 65.484 160.08z" fill="#fff"/>
</svg>
